HIERARCHY
ROOT Hips
{
	OFFSET 0.327225 85.456291 8.060652
	CHANNELS 6 Xposition Yposition Zposition Zrotation Yrotation Xrotation 
	JOINT Spine
	{
		OFFSET 0.000000 8.814246 -2.080107
		CHANNELS 3 Zrotation Yrotation Xrotation
		JOINT Spine1
		{
			OFFSET -0.000000 8.844141 0.000000
			CHANNELS 3 Zrotation Yrotation Xrotation
			JOINT Spine2
			{
				OFFSET 0.000000 11.682268 0.000000
				CHANNELS 3 Zrotation Yrotation Xrotation
				JOINT Spine3
				{
					OFFSET 0.000000 11.746700 0.000000
					CHANNELS 3 Zrotation Yrotation Xrotation
					JOINT Neck
					{
						OFFSET 0.000000 17.658264 0.000000
						CHANNELS 3 Zrotation Yrotation Xrotation
						JOINT Neck1
						{
							OFFSET 0.000000 5.101515 0.000000
							CHANNELS 3 Zrotation Yrotation Xrotation
							JOINT Head
							{
								OFFSET -0.000000 5.101515 -0.000000
								CHANNELS 3 Zrotation Yrotation Xrotation
								JOINT HeadEnd
								{
									OFFSET 0.000000 11.655085 0.000000
									CHANNELS 3 Zrotation Yrotation Xrotation
									End Site
									{
										OFFSET 0.000000 0.000000 0.000000
									}
								}
							}
						}
					}
					JOINT RightShoulder
					{
						OFFSET -2.625389 11.175210 -0.000000
						CHANNELS 3 Zrotation Yrotation Xrotation
						JOINT RightArm
						{
							OFFSET 0.000000 10.434715 0.000000
							CHANNELS 3 Zrotation Yrotation Xrotation
							JOINT RightForeArm
							{
								OFFSET -0.000000 29.628420 -0.000000
								CHANNELS 3 Zrotation Yrotation Xrotation
								JOINT RightHand
								{
									OFFSET 0.000000 22.857611 -0.000000
									CHANNELS 3 Zrotation Yrotation Xrotation
									JOINT RightHandThumb1
									{
										OFFSET -2.867323 3.959563 2.944291
										CHANNELS 3 Zrotation Yrotation Xrotation
										JOINT RightHandThumb2
										{
											OFFSET -0.000000 3.350399 0.000000
											CHANNELS 3 Zrotation Yrotation Xrotation
											JOINT RightHandThumb3
											{
												OFFSET -0.000000 3.756509 0.000000
												CHANNELS 3 Zrotation Yrotation Xrotation
												JOINT RightHandThumb4
												{
													OFFSET -0.000000 3.147345 0.000000
													CHANNELS 3 Zrotation Yrotation Xrotation
													End Site
													{
														OFFSET 0.000000 0.000000 0.000000
													}
												}
											}
										}
									}
									JOINT RightHandIndex1
									{
										OFFSET -0.086752 10.030893 2.345280
										CHANNELS 3 Zrotation Yrotation Xrotation
										JOINT RightHandIndex2
										{
											OFFSET -0.000000 4.061090 -0.000000
											CHANNELS 3 Zrotation Yrotation Xrotation
											JOINT RightHandIndex3
											{
												OFFSET 0.000000 3.248873 -0.000000
												CHANNELS 3 Zrotation Yrotation Xrotation
												JOINT RightHandIndex4
												{
													OFFSET 0.000000 2.639709 -0.000000
													CHANNELS 3 Zrotation Yrotation Xrotation
													End Site
													{
														OFFSET 0.000000 0.000000 0.000000
													}
												}
											}
										}
									}
									JOINT RightHandMiddle1
									{
										OFFSET 0.104102 9.502952 0.006768
										CHANNELS 3 Zrotation Yrotation Xrotation
										JOINT RightHandMiddle2
										{
											OFFSET -0.000000 4.568727 -0.000000
											CHANNELS 3 Zrotation Yrotation Xrotation
											JOINT RightHandMiddle3
											{
												OFFSET -0.000000 3.654981 -0.000000
												CHANNELS 3 Zrotation Yrotation Xrotation
												JOINT RightHandMiddle4
												{
													OFFSET -0.000000 2.741236 -0.000000
													CHANNELS 3 Zrotation Yrotation Xrotation
													End Site
													{
														OFFSET 0.000000 0.000000 0.000000
													}
												}
											}
										}
									}
									JOINT RightHandRing1
									{
										OFFSET 0.086752 8.921708 -2.267442
										CHANNELS 3 Zrotation Yrotation Xrotation
										JOINT RightHandRing2
										{
											OFFSET -0.000000 4.061090 0.000000
											CHANNELS 3 Zrotation Yrotation Xrotation
											JOINT RightHandRing3
											{
												OFFSET 0.000000 3.654981 -0.000000
												CHANNELS 3 Zrotation Yrotation Xrotation
												JOINT RightHandRing4
												{
													OFFSET 0.000000 2.741236 -0.000000
													CHANNELS 3 Zrotation Yrotation Xrotation
													End Site
													{
														OFFSET 0.000000 0.000000 0.000000
													}
												}
											}
										}
									}
									JOINT RightHandPinky1
									{
										OFFSET -0.173504 7.976997 -4.467199
										CHANNELS 3 Zrotation Yrotation Xrotation
										JOINT RightHandPinky2
										{
											OFFSET -0.000000 3.350399 0.000000
											CHANNELS 3 Zrotation Yrotation Xrotation
											JOINT RightHandPinky3
											{
												OFFSET 0.000000 2.842763 -0.000000
												CHANNELS 3 Zrotation Yrotation Xrotation
												JOINT RightHandPinky4
												{
													OFFSET -0.000000 2.639709 0.000000
													CHANNELS 3 Zrotation Yrotation Xrotation
													End Site
													{
														OFFSET 0.000000 0.000000 0.000000
													}
												}
											}
										}
									}
									JOINT RightForeArmEnd
									{
										OFFSET 0.000000 0.000000 0.000000
										CHANNELS 3 Zrotation Yrotation Xrotation
										End Site
										{
											OFFSET 0.000000 0.000000 0.000000
										}
									}
								}
								JOINT RightArmEnd
								{
									OFFSET 0.000000 0.000000 0.000000
									CHANNELS 3 Zrotation Yrotation Xrotation
									End Site
									{
										OFFSET 0.000000 0.000000 0.000000
									}
								}
							}
						}
					}
					JOINT LeftShoulder
					{
						OFFSET 2.625389 11.175210 0.000000
						CHANNELS 3 Zrotation Yrotation Xrotation
						JOINT LeftArm
						{
							OFFSET -0.000000 10.813635 0.000000
							CHANNELS 3 Zrotation Yrotation Xrotation
							JOINT LeftForeArm
							{
								OFFSET 0.000000 28.724781 -0.000000
								CHANNELS 3 Zrotation Yrotation Xrotation
								JOINT LeftHand
								{
									OFFSET 0.644384 25.716167 -0.328871
									CHANNELS 3 Zrotation Yrotation Xrotation
									JOINT LeftHandThumb1
									{
										OFFSET 2.867323 3.959563 2.944291
										CHANNELS 3 Zrotation Yrotation Xrotation
										JOINT LeftHandThumb2
										{
											OFFSET 0.000000 3.350399 -0.000000
											CHANNELS 3 Zrotation Yrotation Xrotation
											JOINT LeftHandThumb3
											{
												OFFSET 0.000000 3.756509 0.000000
												CHANNELS 3 Zrotation Yrotation Xrotation
												JOINT LeftHandThumb4
												{
													OFFSET 0.000000 3.100000 0.000000
													CHANNELS 3 Zrotation Yrotation Xrotation
													End Site
													{
														OFFSET 0.000000 0.000000 0.000000
													}
												}
											}
										}
									}
									JOINT LeftHandIndex1
									{
										OFFSET 0.086752 10.030893 2.345280
										CHANNELS 3 Zrotation Yrotation Xrotation
										JOINT LeftHandIndex2
										{
											OFFSET 0.000000 4.061090 0.000000
											CHANNELS 3 Zrotation Yrotation Xrotation
											JOINT LeftHandIndex3
											{
												OFFSET -0.000000 3.248873 -0.000000
												CHANNELS 3 Zrotation Yrotation Xrotation
												JOINT LeftHandIndex4
												{
													OFFSET -0.000000 2.639709 -0.000000
													CHANNELS 3 Zrotation Yrotation Xrotation
													End Site
													{
														OFFSET 0.000000 0.000000 0.000000
													}
												}
											}
										}
									}
									JOINT LeftHandMiddle1
									{
										OFFSET -0.104102 9.502952 0.006768
										CHANNELS 3 Zrotation Yrotation Xrotation
										JOINT LeftHandMiddle2
										{
											OFFSET 0.000000 4.568727 0.000000
											CHANNELS 3 Zrotation Yrotation Xrotation
											JOINT LeftHandMiddle3
											{
												OFFSET -0.000000 3.654981 -0.000000
												CHANNELS 3 Zrotation Yrotation Xrotation
												JOINT LeftHandMiddle4
												{
													OFFSET -0.000000 2.741236 -0.000000
													CHANNELS 3 Zrotation Yrotation Xrotation
													End Site
													{
														OFFSET 0.000000 0.000000 0.000000
													}
												}
											}
										}
									}
									JOINT LeftHandRing1
									{
										OFFSET -0.086752 8.921708 -2.267442
										CHANNELS 3 Zrotation Yrotation Xrotation
										JOINT LeftHandRing2
										{
											OFFSET 0.000000 4.061090 0.000000
											CHANNELS 3 Zrotation Yrotation Xrotation
											JOINT LeftHandRing3
											{
												OFFSET -0.000000 3.654981 -0.000000
												CHANNELS 3 Zrotation Yrotation Xrotation
												JOINT LeftHandRing4
												{
													OFFSET -0.000000 2.741236 -0.000000
													CHANNELS 3 Zrotation Yrotation Xrotation
													End Site
													{
														OFFSET 0.000000 0.000000 0.000000
													}
												}
											}
										}
									}
									JOINT LeftHandPinky1
									{
										OFFSET 0.173504 7.976997 -4.467199
										CHANNELS 3 Zrotation Yrotation Xrotation
										JOINT LeftHandPinky2
										{
											OFFSET 0.000000 3.350399 0.000000
											CHANNELS 3 Zrotation Yrotation Xrotation
											JOINT LeftHandPinky3
											{
												OFFSET 0.000000 2.842763 0.000000
												CHANNELS 3 Zrotation Yrotation Xrotation
												JOINT LeftHandPinky4
												{
													OFFSET 0.000000 2.639709 -0.000000
													CHANNELS 3 Zrotation Yrotation Xrotation
													End Site
													{
														OFFSET 0.000000 0.000000 0.000000
													}
												}
											}
										}
									}
									JOINT LeftForeArmEnd
									{
										OFFSET 0.000000 0.000000 0.000000
										CHANNELS 3 Zrotation Yrotation Xrotation
										End Site
										{
											OFFSET 0.000000 0.000000 0.000000
										}
									}
								}
								JOINT LeftArmEnd
								{
									OFFSET 0.000000 0.000000 0.000000
									CHANNELS 3 Zrotation Yrotation Xrotation
									End Site
									{
										OFFSET 0.000000 0.000000 0.000000
									}
								}
							}
						}
					}
				}
			}
		}
	}
	JOINT RightUpLeg
	{
		OFFSET -11.289943 0.000000 -0.000000
		CHANNELS 3 Zrotation Yrotation Xrotation
		JOINT RightLeg
		{
			OFFSET -0.000000 -38.200325 -0.000000
			CHANNELS 3 Zrotation Yrotation Xrotation
			JOINT RightFoot
			{
				OFFSET -0.000000 -39.900856 0.000000
				CHANNELS 3 Zrotation Yrotation Xrotation
				JOINT RightToeBase
				{
					OFFSET 0.000000 -0.000000 15.261641
					CHANNELS 3 Zrotation Yrotation Xrotation
					JOINT RightToeBaseEnd
					{
						OFFSET -0.000000 -0.000000 7.370709
						CHANNELS 3 Zrotation Yrotation Xrotation
						End Site
						{
							OFFSET 0.000000 0.000000 0.000000
						}
					}
				}
				JOINT RightLegEnd
				{
					OFFSET 0.000000 0.000000 0.000000
					CHANNELS 3 Zrotation Yrotation Xrotation
					End Site
					{
						OFFSET 0.000000 0.000000 0.000000
					}
				}
			}
			JOINT RightUpLegEnd
			{
				OFFSET 0.000000 0.000000 0.000000
				CHANNELS 3 Zrotation Yrotation Xrotation
				End Site
				{
					OFFSET 0.000000 0.000000 0.000000
				}
			}
		}
	}
	JOINT LeftUpLeg
	{
		OFFSET 11.315661 -0.000000 0.000000
		CHANNELS 3 Zrotation Yrotation Xrotation
		JOINT LeftLeg
		{
			OFFSET -0.000000 -38.200325 -0.000000
			CHANNELS 3 Zrotation Yrotation Xrotation
			JOINT LeftFoot
			{
				OFFSET -0.000000 -39.900856 0.000000
				CHANNELS 3 Zrotation Yrotation Xrotation
				JOINT LeftToeBase
				{
					OFFSET 0.000000 -0.000000 15.261641
					CHANNELS 3 Zrotation Yrotation Xrotation
					JOINT LeftToeBaseEnd
					{
						OFFSET -0.000000 0.000000 7.539996
						CHANNELS 3 Zrotation Yrotation Xrotation
						End Site
						{
							OFFSET 0.000000 0.000000 0.000000
						}
					}
				}
				JOINT LeftLegEnd
				{
					OFFSET 0.000000 0.000000 0.000000
					CHANNELS 3 Zrotation Yrotation Xrotation
					End Site
					{
						OFFSET 0.000000 0.000000 0.000000
					}
				}
			}
			JOINT LeftUpLegEnd
			{
				OFFSET 0.000000 0.000000 0.000000
				CHANNELS 3 Zrotation Yrotation Xrotation
				End Site
				{
					OFFSET 0.000000 0.000000 0.000000
				}
			}
		}
	}
}
MOTION
Frames: 5
Frame Time: 0.016667
0.327225 85.456291 8.060652 -1.060160 -0.454608 -23.207590 2.322709 -0.297220 12.236113 0.341520 -0.185955 6.095392 -2.927263 -0.107008 18.660194 -3.766547 -0.127707 10.148421 -8.554237 3.011372 10.670642 -1.052736 0.746531 -1.072306 -1.427619 -1.392408 -19.988150 0.000000 0.000000 0.000000 91.634735 -0.442339 15.425826 54.665524 -30.476999 24.470922 -0.226760 15.539892 21.119818 5.921650 20.191023 -2.405218 13.495595 32.597275 68.996590 0.000003 0.000003 0.000009 0.000134 -0.000001 0.000005 0.000000 0.000000 0.000000 13.796139 -10.938026 1.277707 9.837293 0.396116 1.450871 9.837299 -0.105893 1.372970 0.000000 0.000000 0.000000 13.018492 -5.780196 0.547168 9.259837 0.477044 0.562421 9.259580 -0.040827 0.482464 0.000000 0.000000 0.000000 14.759333 1.948519 1.684468 10.371669 -0.929828 -0.808298 10.370477 0.055660 -0.609709 0.000000 0.000000 0.000000 15.656369 10.308870 0.915056 10.776875 -1.765082 -2.455533 10.769448 0.171573 -2.081882 0.000000 0.000000 0.000000 0.000000 0.000000 0.000000 0.000000 0.000000 0.000000 -92.594154 0.517031 10.482300 -55.364445 20.044870 9.159415 -0.966445 -10.157828 39.026314 -1.252406 -30.847612 -11.535672 -13.450125 -32.590797 68.901459 0.011028 0.011022 -0.022262 0.011023 0.011028 -0.022273 0.000000 0.000000 0.000000 -11.776063 -6.462783 0.977572 -8.183229 0.418838 -1.217398 -8.182890 -0.087328 -1.146339 0.000000 0.000000 0.000000 -11.505368 -1.486834 0.105365 -8.159037 0.488683 -0.513053 -8.158793 0.006084 -0.433014 0.000000 0.000000 0.000000 -14.670410 7.057579 0.049814 -10.405230 -0.938801 0.816612 -10.403862 0.035557 0.635699 0.000000 0.000000 0.000000 -17.068953 15.932078 -0.778814 -11.779098 -1.717910 2.681325 -11.773773 0.235106 2.277516 0.000000 0.000000 0.000000 0.000000 0.000000 0.000000 0.000000 0.000000 0.000000 -5.285096 -1.941737 14.891479 -0.561212 -0.964231 30.047485 4.622950 -4.876317 6.481491 -0.907080 1.864290 -16.513636 0.000000 0.000000 0.000000 0.000000 0.000000 0.000000 0.000000 0.000000 0.000000 4.159544 -1.943718 10.882134 0.172503 0.240085 35.792629 -0.279231 6.748767 5.369925 0.530027 -0.512076 -20.503864 0.000000 0.000000 0.000000 0.000000 0.000000 0.000000 0.000000 0.000000 0.000000 
0.228034 85.302208 7.343693 -0.685559 -0.202440 -22.517488 1.230373 -0.160864 12.093635 0.593758 -0.128811 6.933660 -3.218623 0.564812 17.553438 -2.929080 -0.121301 9.071124 -8.991723 4.114084 10.370718 -2.079360 0.541136 -1.942287 -1.254476 -0.299605 -19.143248 0.000000 0.000000 0.000000 91.901184 -0.261749 15.059009 55.410557 -28.633327 22.465513 0.284763 16.988375 20.523651 4.661033 17.670248 -0.945575 -5.707415 0.899478 47.144337 -0.000009 0.000004 12.822294 0.000015 0.000055 9.340598 0.000018 0.000006 -0.000020 14.631642 0.969362 -1.082963 9.406460 0.021693 0.214947 9.479698 0.077977 0.196181 -0.000022 -0.000002 -0.000000 12.700066 0.378343 -3.001546 8.571629 -0.022482 0.060226 8.414921 0.021122 0.064822 0.000013 -0.000044 0.000026 13.167966 -0.477812 -2.894821 9.693910 0.040805 -0.001948 9.492463 -0.042582 -0.002343 -0.000008 0.000385 -0.000000 13.389807 -1.265220 -4.857604 10.163367 -0.030140 0.293596 9.950535 -0.236733 0.176864 -0.000557 0.000009 0.000038 0.000000 0.000000 0.000000 0.000000 0.000000 0.000000 -90.321861 -0.218949 10.630089 -57.365463 21.309008 7.021513 -1.062056 -9.197886 40.141937 1.736194 -29.296291 -6.038198 5.977780 -0.882995 47.125122 0.000017 0.000021 13.243690 -0.000133 -0.000005 9.654709 -0.000051 -0.000016 0.000478 -12.171997 0.943576 -0.738568 -9.233150 -0.056925 -0.210422 -9.215949 0.028284 -0.197426 0.000013 0.000398 0.000015 -12.490086 0.393975 -2.863480 -8.682241 -0.052399 -0.083565 -8.521913 0.002270 -0.064880 0.000776 -0.000043 0.000046 -15.045094 -0.459521 -3.379061 -9.612457 0.087225 0.124074 -9.571678 -0.011514 0.111315 0.000184 -0.000008 -0.000002 -15.893853 -1.321936 -4.794343 -10.129979 0.194583 0.413073 -9.924213 -0.060152 0.380516 0.000491 -0.000015 -0.000049 0.000000 0.000000 0.000000 0.000000 0.000000 0.000000 -6.850272 0.771013 14.002415 -0.422641 -0.880253 26.978443 3.452728 -4.256234 7.894079 -0.895881 1.773737 -16.892553 0.000000 0.000000 0.000000 0.000000 0.000000 0.000000 0.000000 0.000000 0.000000 3.670686 -1.749389 11.433901 0.290447 0.294142 35.343945 -0.389321 7.865933 4.428170 0.394516 -0.902823 -19.843115 0.000000 0.000000 0.000000 0.000000 0.000000 0.000000 0.000000 0.000000 0.000000 
0.214623 85.312080 7.371095 -0.663147 -0.231195 -22.506081 1.240432 -0.153760 12.070732 0.609140 -0.119876 6.928579 -3.184958 0.525653 17.542759 -2.885816 -0.104422 8.985678 -9.021450 4.174494 10.459282 -2.012243 0.645181 -2.020131 -1.273590 -0.327280 -19.176073 0.000000 0.000000 0.000000 91.936890 -0.258990 15.075890 55.446365 -28.709572 22.497597 0.321150 17.150860 20.394972 4.828313 17.745333 -1.220250 -5.735511 0.900932 47.152477 -0.000001 0.000012 12.881196 0.000013 0.000054 9.402563 0.000035 0.000013 -0.000039 14.357530 1.020631 -1.591001 9.271713 0.024389 0.187043 9.350113 0.082253 0.169292 -0.000017 0.000005 -0.000008 12.461518 0.399443 -3.426279 8.450329 -0.023143 0.052410 8.296768 0.022956 0.058413 0.000030 -0.000082 0.000021 12.984314 -0.503478 -3.314536 9.541036 0.044686 0.004200 9.349297 -0.043755 0.003223 -0.000024 0.000157 -0.000017 13.279662 -1.334445 -5.189935 9.992913 -0.024688 0.297975 9.780594 -0.244390 0.177930 -0.000526 0.000011 0.000011 0.000000 0.000000 0.000000 0.000000 0.000000 0.000000 -90.447151 -0.209785 10.526261 -57.440624 21.419476 7.135853 -1.115101 -9.136513 39.974415 1.551026 -28.785439 -5.933889 6.008585 -0.889313 47.139496 0.000018 0.000036 13.313401 -0.000151 -0.000000 9.705484 0.000007 -0.000003 0.000692 -11.973717 0.998585 -0.995909 -9.177339 -0.054041 -0.184474 -9.172316 0.034420 -0.180132 0.000016 0.000315 0.000014 -12.271545 0.417467 -3.070472 -8.615213 -0.053439 -0.076190 -8.477684 0.003224 -0.058789 0.000643 -0.000036 0.000006 -14.882751 -0.485497 -3.551565 -9.556376 0.089852 0.117464 -9.501511 -0.012577 0.106556 0.000270 0.000010 0.000004 -15.751500 -1.397099 -4.888887 -10.057831 0.199405 0.396660 -9.861199 -0.064407 0.365472 0.000579 0.000005 -0.000051 0.000000 0.000000 0.000000 0.000000 0.000000 0.000000 -6.789976 0.791029 13.969605 -0.422948 -0.879447 26.907408 3.338219 -4.157156 8.025647 -0.908178 1.745229 -16.927803 0.000000 0.000000 0.000000 0.000000 0.000000 0.000000 0.000000 0.000000 0.000000 3.628615 -1.690731 11.526649 0.290452 0.285827 35.239471 -0.316859 7.958791 4.434207 0.386179 -0.874840 -19.879230 0.000000 0.000000 0.000000 0.000000 0.000000 0.000000 0.000000 0.000000 0.000000 
0.193575 85.327103 7.408914 -0.648566 -0.264051 -22.490810 1.247196 -0.144437 12.048564 0.641722 -0.119985 6.863238 -3.163508 0.498521 17.555239 -2.848952 -0.101411 8.922284 -9.016963 4.176310 10.634847 -1.962138 0.698850 -2.001106 -1.270738 -0.339571 -19.212791 0.000000 0.000000 0.000000 92.002022 -0.268559 15.058464 55.402740 -28.822939 22.577692 0.326365 17.156536 20.156403 4.965281 17.643711 -1.389451 -5.745495 0.902316 47.156746 0.000003 0.000013 12.919765 0.000010 0.000055 9.438777 0.000035 0.000013 -0.000040 14.222919 1.037349 -1.954589 9.210777 0.026372 0.167735 9.293329 0.084867 0.149545 -0.000015 0.000005 -0.000010 12.350706 0.406465 -3.728292 8.386719 -0.022916 0.047698 8.236453 0.023581 0.054046 0.000030 -0.000096 0.000023 12.857888 -0.511899 -3.595797 9.438026 0.047140 0.006275 9.257898 -0.043428 0.005267 -0.000024 0.000035 -0.000015 13.191653 -1.355029 -5.397702 9.872067 -0.019496 0.286260 9.665817 -0.244453 0.167715 -0.000527 0.000010 -0.000002 0.000000 0.000000 0.000000 0.000000 0.000000 0.000000 -90.534622 -0.187789 10.434009 -57.369049 21.533531 7.265980 -1.139883 -8.994256 39.799519 1.294639 -28.392801 -5.895452 6.038883 -0.894457 47.150936 0.000016 0.000037 13.372943 -0.000160 0.000000 9.752568 -0.000003 -0.000003 0.000858 -11.806552 1.017754 -1.197194 -9.108768 -0.052899 -0.169762 -9.108386 0.036916 -0.170071 0.000015 0.000200 0.000015 -12.089072 0.426291 -3.226810 -8.540257 -0.053936 -0.072661 -8.415778 0.003343 -0.055687 0.000620 -0.000037 -0.000016 -14.720160 -0.494666 -3.683183 -9.491179 0.090700 0.116584 -9.429916 -0.012595 0.105876 0.000291 0.000010 0.000004 -15.607985 -1.422097 -4.956247 -9.992315 0.202271 0.398008 -9.797148 -0.064450 0.364950 0.000626 0.000004 -0.000052 0.000000 0.000000 0.000000 0.000000 0.000000 0.000000 -6.736630 0.814830 14.028051 -0.420909 -0.875656 26.731304 3.243481 -4.122283 8.177147 -0.920228 1.720946 -16.967407 0.000000 0.000000 0.000000 0.000000 0.000000 0.000000 0.000000 0.000000 0.000000 3.597677 -1.647846 11.679249 0.288059 0.281400 35.002602 -0.259219 8.067456 4.501717 0.383799 -0.856734 -19.895103 0.000000 0.000000 0.000000 0.000000 0.000000 0.000000 0.000000 0.000000 0.000000 
0.169837 85.337883 7.439781 -0.651013 -0.287607 -22.471016 1.261337 -0.139267 12.038383 0.671669 -0.122546 6.799807 -3.143886 0.467868 17.557377 -2.817893 -0.106315 8.879169 -8.936401 4.135264 10.755955 -1.923125 0.730009 -1.962302 -1.264400 -0.347080 -19.223694 0.000000 0.000000 0.000000 92.043053 -0.275253 15.031164 55.390560 -28.915976 22.611692 0.321120 17.094877 19.939150 5.150299 17.414040 -1.516957 -5.731959 0.902725 47.156406 0.000003 0.000014 12.916942 0.000010 0.000056 9.436567 0.000034 0.000012 -0.000040 14.195669 1.046552 -2.265647 9.203418 0.027460 0.155320 9.288875 0.086428 0.136235 -0.000015 0.000004 -0.000010 12.342968 0.410022 -4.000730 8.374188 -0.023006 0.044800 8.225345 0.023647 0.051357 0.000029 -0.000103 0.000024 12.824776 -0.516325 -3.849421 9.390431 0.049101 0.007184 9.219584 -0.042760 0.006200 -0.000024 -0.000042 -0.000014 13.174640 -1.365362 -5.585332 9.812119 -0.014391 0.276229 9.608017 -0.242755 0.158982 -0.000538 0.000009 -0.000010 0.000000 0.000000 0.000000 0.000000 0.000000 0.000000 -90.577904 -0.174200 10.376252 -57.348606 21.676815 7.291116 -1.135432 -8.854528 39.707027 1.099450 -28.098703 -5.884711 6.059136 -0.899507 47.159950 0.000015 0.000037 13.413833 -0.000167 0.000001 9.781567 -0.000033 -0.000004 0.000931 -11.739820 1.028312 -1.341925 -9.092367 -0.052412 -0.158134 -9.093079 0.038239 -0.162025 0.000014 0.000116 0.000015 -11.995678 0.431199 -3.348110 -8.513606 -0.054414 -0.069894 -8.396531 0.003203 -0.053448 0.000649 -0.000038 -0.000028 -14.594320 -0.500083 -3.805887 -9.453893 0.091485 0.116713 -9.389914 -0.012314 0.105793 0.000312 0.000011 0.000004 -15.466121 -1.436065 -5.046887 -9.942953 0.204609 0.401229 -9.746521 -0.063661 0.366650 0.000663 0.000003 -0.000053 0.000000 0.000000 0.000000 0.000000 0.000000 0.000000 -6.664942 0.842239 14.075891 -0.417477 -0.868511 26.567604 3.169353 -4.108873 8.299142 -0.928598 1.703808 -16.995300 0.000000 0.000000 0.000000 0.000000 0.000000 0.000000 0.000000 0.000000 0.000000 3.590445 -1.633533 11.783663 0.286287 0.279812 34.834572 -0.232282 8.157301 4.570712 0.380527 -0.845378 -19.909060 0.000000 0.000000 0.000000 0.000000 0.000000 0.000000 0.000000 0.000000 0.000000 
